<?xml version="1.0" standalone="no"?><!DOCTYPE svg PUBLIC "-//W3C//DTD SVG 1.1//EN" "http://www.w3.org/Graphics/SVG/1.1/DTD/svg11.dtd"><svg t="1516871491280" class="icon" style="" viewBox="0 0 1024 1024" version="1.1" xmlns="http://www.w3.org/2000/svg" p-id="3735" xmlns:xlink="http://www.w3.org/1999/xlink" width="128" height="128"><defs><style type="text/css"></style></defs><path d="M534.631538 45.397333a26.749156 26.749156 0 0 0-3.697778-40.891733c-10.808889-7.600356-25.816178-5.165511-35.157333 4.187022L328.318293 176.116622c-9.136356 9.136356-11.343644 23.699911-4.096 34.395022a26.749156 26.749156 0 0 0 41.1648 4.118756L534.631538 45.397333zM214.859093 365.169778a26.737778 26.737778 0 0 0-37.774222-37.7856L7.829049 496.605867a26.749156 26.749156 0 0 0 0 37.796977 26.737778 26.737778 0 0 0 37.7856 0l169.233067-169.233066zM612.466916 123.221333a26.715022 26.715022 0 0 0-37.7856-37.7856L405.448249 254.680178a26.737778 26.737778 0 0 0 0 37.774222 26.737778 26.737778 0 0 0 37.7856 0l169.233067-169.221689zM292.694471 442.993778a26.715022 26.715022 0 0 0-37.7856-37.7856L85.675804 574.452622a26.737778 26.737778 0 0 0 0 37.796978 26.737778 26.737778 0 0 0 37.7856 0l169.233067-169.244444z m404.48-235.064889a26.715022 26.715022 0 0 0-37.7856-37.774222l-489.016889 488.994133a26.737778 26.737778 0 0 0 0 37.7856 26.737778 26.737778 0 0 0 37.796978 0l489.005511-489.005511z m155.670756 155.670755a26.715022 26.715022 0 0 0-37.7856-37.7856l-489.016889 488.994134a26.749156 26.749156 0 0 0 0 37.796978 26.737778 26.737778 0 0 0 37.796978 0l489.005511-489.005512z m-189.633423 33.962667a26.715022 26.715022 0 0 0-37.7856-37.7856l-271.587555 271.587556a26.749156 26.749156 0 0 0 0 37.7856 26.737778 26.737778 0 0 0 37.774222 0l271.587556-271.587556z m274.3296 50.744889a26.715022 26.715022 0 0 0-37.7856-37.7856L730.522738 579.743289a26.737778 26.737778 0 0 0 37.7856 37.796978L937.552782 448.3072zM617.76896 768.079644a26.715022 26.715022 0 0 0-37.7856-37.7856L410.761671 899.527111a26.737778 26.737778 0 0 0 0 37.774222 26.737778 26.737778 0 0 0 37.7856 0l169.233067-169.221689zM1015.376782 526.142578a26.715022 26.715022 0 0 0-37.7856-37.7856L808.358116 657.590044a26.715022 26.715022 0 0 0 37.7856 37.774223L1015.376782 526.153956zM695.604338 845.915022a26.715022 26.715022 0 0 0-37.7856-37.7856L488.585671 977.351111a26.715022 26.715022 0 0 0 37.7856 37.774222l169.233067-169.221689z" fill="#378acc" p-id="3736"></path></svg>